<svg width="174" height="46" viewBox="0 0 174 46" fill="none" xmlns="http://www.w3.org/2000/svg">
<path d="M85.1068 13.8743V10.9194H71.0632V32H74.3837V23.0438H84.1929V20.2107H74.3837V13.8743H85.1068ZM91.5767 12.9604C91.5767 11.8637 90.7542 11.1326 89.5966 11.1326C88.4085 11.1326 87.6164 11.8637 87.6164 12.9604C87.6164 14.0266 88.4085 14.7882 89.5966 14.7882C90.7542 14.7882 91.5767 14.0266 91.5767 12.9604ZM88.0429 17.012V32H91.1502V17.012H88.0429ZM97.8997 32V23.0742C97.8997 20.8199 99.2706 19.6319 101.586 19.6319V17.012C97.26 17.012 94.762 19.1445 94.762 22.8001V32H97.8997ZM118.622 24.5365C118.592 19.9974 115.271 16.7379 110.641 16.7379C106.011 16.7379 102.629 19.9974 102.629 24.506C102.629 29.0146 106.011 32.2742 110.641 32.2742C114.327 32.2742 117.526 29.898 118.379 26.5775H115.211C114.632 28.3749 112.804 29.7152 110.671 29.7152C108.082 29.7152 106.132 27.9788 105.736 25.4808H118.531C118.592 25.1762 118.622 24.8411 118.622 24.5365ZM110.671 19.2968C113.139 19.2968 115.089 20.8504 115.607 23.0742H105.828C106.376 20.8504 108.234 19.2968 110.671 19.2968ZM127.39 13.2955C127.725 13.2955 128.151 13.3564 128.547 13.5087V10.767C128.151 10.6756 127.694 10.6452 127.359 10.6452C124.496 10.6452 122.485 12.4425 122.485 15.0014V17.012H120.322V19.6319H122.485V32H125.592V19.6319H128.547V17.012H125.592V15.0014C125.592 13.9657 126.354 13.2955 127.39 13.2955ZM131.458 10.9194V32H134.565V10.9194H131.458ZM148.869 17.012V25.1457C148.869 27.5523 147.376 29.1364 145.061 29.1364C142.807 29.1364 141.345 27.5523 141.345 25.1457V17.012H138.237V25.5722C138.237 29.1974 140.735 31.6344 144.117 31.6344C146.219 31.6344 147.894 30.7205 148.869 29.1364V31.9391C148.869 34.3457 147.407 35.8688 145.152 35.8688C143.081 35.8688 141.68 34.498 141.497 32.3656L138.603 32.3351C138.907 35.9298 141.527 38.3668 145.274 38.3668C149.295 38.3668 152.007 35.7165 152.007 31.7563V17.012H148.869Z" fill="white"/>
<path d="M25.8547 4.20576L24.5518 1.9541" stroke="#5724B1" stroke-width="2.429" stroke-miterlimit="10" stroke-linecap="round" stroke-linejoin="round"/>
<path d="M34.3271 4.20576L35.6301 1.9541" stroke="#5724B1" stroke-width="2.429" stroke-miterlimit="10" stroke-linecap="round" stroke-linejoin="round"/>
<path fill-rule="evenodd" clip-rule="evenodd" d="M25.1603 13.7091C25.6782 11.4754 27.6943 9.8109 30.0945 9.8109C32.4936 9.8109 34.509 11.474 35.028 13.7063C32.9818 14.2547 31.2376 15.5328 30.0931 17.2409C28.9483 15.5355 27.2048 14.2591 25.1603 13.7091ZM22.2734 13.4114C22.9518 9.73855 26.1945 6.94922 30.0945 6.94922C33.9945 6.94922 37.2372 9.73855 37.9156 13.4114H58.7298C59.514 13.4114 60.1549 14.0314 60.1736 14.8082C60.0208 14.8118 59.8874 14.8149 59.7715 14.8176C59.5142 14.8232 59.2131 14.8303 59.1267 14.8325C59.0402 14.8346 59.1687 14.8318 59.7715 14.8176C59.9881 14.8129 60.1736 14.8093 60.1737 14.8105L60.1737 14.8132L60.1738 14.8194L60.1741 14.8357C60.1742 14.8482 60.1743 14.864 60.1743 14.8829C60.1742 14.9208 60.1737 14.9715 60.1719 15.0341C60.1683 15.1591 60.1598 15.3321 60.1408 15.5462C60.1027 15.9739 60.0222 16.569 59.8529 17.2759C59.5144 18.6887 58.8166 20.5648 57.3801 22.4379C56.0191 24.2125 54.0494 25.9172 51.2236 27.2319C52.3672 30.2374 52.7938 33.6546 52.2567 37.518C52.176 38.0991 51.7454 38.5725 51.1704 38.7124L50.8266 37.3252C51.1704 38.7124 51.1696 38.7126 51.1688 38.7128L51.1669 38.7133L51.1621 38.7144L51.1491 38.7175L51.1089 38.7267C51.0759 38.7341 51.0307 38.744 50.9737 38.7558C50.8597 38.7793 50.6986 38.8103 50.4949 38.8441C50.0876 38.9116 49.5083 38.9904 48.7928 39.042C47.3646 39.1449 45.3769 39.1404 43.1243 38.7109C41.4843 38.3982 39.711 37.8608 37.9187 36.9844C36.7741 40.0063 34.6623 43.2176 30.8047 45.4056C30.3602 45.6578 29.8141 45.6578 29.3696 45.4056C25.514 43.2188 23.4024 40.0097 22.2573 36.9892C20.4684 37.8628 18.6988 38.3988 17.062 38.7109C14.8099 39.1404 12.8228 39.1449 11.3951 39.042C10.6798 38.9904 10.1008 38.9116 9.69369 38.8441C9.49003 38.8103 9.329 38.7792 9.21506 38.7557C9.15808 38.744 9.11284 38.7341 9.07988 38.7267L9.03971 38.7174L9.02666 38.7143L9.02192 38.7132L9.01999 38.7127C9.01915 38.7125 9.01837 38.7123 9.36233 37.3252L9.01837 38.7123C8.4438 38.5725 8.01345 38.0996 7.93236 37.5189C7.39303 33.657 7.81811 30.241 8.96043 27.2364C6.12942 25.9211 4.15678 24.2146 2.79423 22.4379C1.35771 20.5648 0.659938 18.6887 0.321419 17.2759C0.152057 16.569 0.0715627 15.9739 0.033525 15.5462C0.0144838 15.3321 0.00600999 15.1591 0.00242516 15.0341C0.000631939 14.9715 5.94496e-05 14.9208 4.4732e-06 14.8829C-2.29576e-05 14.864 7.89611e-05 14.8482 0.000222772 14.8357L0.00045909 14.8194L0.000580291 14.8132L0.000638137 14.8105C0.000665568 14.8093 0.000692772 14.8082 1.44447 14.8423L0.000692769 14.8082C0.0193856 14.0314 0.660277 13.4114 1.44447 13.4114H22.2734ZM10.1767 24.6403C7.7299 23.4998 6.13828 22.0682 5.09403 20.7066C3.9499 19.2147 3.39784 17.7258 3.13169 16.6149C3.10328 16.4963 3.07817 16.3822 3.05599 16.2731H18.2369C15.62 18.0382 13.2723 20.1392 11.458 22.6423C10.9932 23.2835 10.5648 23.9494 10.1767 24.6403ZM12.9109 25.6678C13.1878 25.202 13.4862 24.7501 13.8041 24.3115C16.1995 21.0067 19.7541 18.3945 23.7927 16.3423C26.5412 16.7706 28.6502 19.1354 28.6502 21.9904C28.6502 22.7806 29.2967 23.4212 30.0943 23.4212C30.8919 23.4212 31.5385 22.7806 31.5385 21.9904C31.5385 19.1298 33.6486 16.7649 36.3933 16.3408C40.4328 18.3932 43.9868 21.0057 46.3821 24.3113C46.6992 24.749 46.9969 25.2 47.2733 25.6648C44.7923 26.4042 41.6768 26.8714 37.7607 26.8714C37.3521 26.8714 36.9626 27.0428 36.6888 27.3433C36.4154 27.6433 36.2829 28.0439 36.3238 28.446L36.324 28.4479L36.3251 28.46C36.3264 28.4742 36.3285 28.4983 36.331 28.5318C36.336 28.5988 36.3429 28.7034 36.349 28.8415C36.3611 29.1179 36.3701 29.5272 36.3552 30.0374C36.3354 30.7114 36.2741 31.554 36.1259 32.494C34.4338 31.1716 32.7904 29.3979 31.3265 27.0264C31.0642 26.6014 30.5976 26.3422 30.0948 26.3421C29.592 26.342 29.1253 26.601 28.8628 27.0259C27.3943 29.4026 25.7461 31.1789 24.0497 32.5022C23.9006 31.5589 23.839 30.7134 23.8191 30.0374C23.8042 29.5272 23.8131 29.1179 23.8253 28.8415C23.8314 28.7034 23.8383 28.5988 23.8433 28.5318C23.8439 28.5246 23.8444 28.5179 23.8449 28.5116C23.8467 28.4884 23.8482 28.4712 23.8492 28.46L23.8503 28.4479L23.8505 28.4454C23.8913 28.0435 23.7588 27.6432 23.4855 27.3433C23.2117 27.0428 22.8222 26.8714 22.4136 26.8714C18.5027 26.8714 15.3903 26.4055 12.9109 25.6678ZM11.6517 28.2759C10.7849 30.5701 10.4048 33.1592 10.674 36.0953C10.938 36.1292 11.2504 36.1623 11.6046 36.1878C12.8392 36.2768 14.5652 36.2728 16.5161 35.9008C18.0498 35.6083 19.7311 35.0877 21.4311 34.1945C21.0834 32.6061 20.9631 31.1804 20.932 30.1205C20.9278 29.9774 20.9252 29.8407 20.9239 29.711C17.2333 29.5999 14.178 29.0756 11.6517 28.2759ZM24.7914 35.5146C25.6499 38.0135 27.224 40.6174 30.0871 42.4854C32.9528 40.6158 34.5271 38.009 35.3851 35.5081C33.5424 34.2473 31.7368 32.5677 30.094 30.3434C28.4474 32.5715 26.6378 34.253 24.7914 35.5146ZM38.7444 34.1891C40.4477 35.0856 42.1329 35.6077 43.6701 35.9008C45.6215 36.2728 47.3482 36.2768 48.5834 36.1878C48.9377 36.1623 49.2502 36.1292 49.5143 36.0953C49.7819 33.1578 49.4006 30.5676 48.5329 28.2726C46.0046 29.0742 42.946 29.5997 39.2504 29.711C39.2491 29.8407 39.2465 29.9774 39.2423 30.1205C39.2113 31.1792 39.0912 32.6029 38.7444 34.1891ZM50.0069 24.636C52.4484 23.4962 54.0373 22.0665 55.0803 20.7066C56.2244 19.2147 56.7765 17.7258 57.0426 16.6149C57.071 16.4963 57.0961 16.3822 57.1183 16.2731H41.9515C44.5679 18.0382 46.9147 20.1394 48.7284 22.6425C49.1921 23.2823 49.6195 23.9467 50.0069 24.636Z" fill="url(#paint0_radial)"/>
<defs>
<radialGradient id="paint0_radial" cx="0" cy="0" r="1" gradientUnits="userSpaceOnUse" gradientTransform="translate(29.004 48.0987) rotate(-90) scale(47.8142 38.8616)">
<stop stop-color="#33FDD8"/>
<stop offset="0.614614" stop-color="#7A4AFF"/>
<stop offset="1" stop-color="#45108A"/>
</radialGradient>
</defs>
</svg>
